<?xml version="1.0" encoding="UTF-8" standalone="no"?>
<svg
   xmlns:dc="http://purl.org/dc/elements/1.1/"
   xmlns:cc="http://creativecommons.org/ns#"
   xmlns:rdf="http://www.w3.org/1999/02/22-rdf-syntax-ns#"
   xmlns:svg="http://www.w3.org/2000/svg"
   xmlns="http://www.w3.org/2000/svg"
   xmlns:xlink="http://www.w3.org/1999/xlink"
   style="enable-background:new"
   id="svg8"
   version="1.1"
   viewBox="0 0 274.35777 59.921179"
   height="2.3591015in"
   width="10.801487in">
  <defs
     id="defs2">
    <clipPath
       id="clipPath1697"
       clipPathUnits="userSpaceOnUse">
      <path
         style="display:inline;fill:#f6c8f2;fill-opacity:1;stroke:none;stroke-width:1.1200217;stroke-linecap:butt;stroke-linejoin:miter;stroke-miterlimit:4;stroke-dasharray:none;stroke-opacity:1"
         d="m 38.712883,101.48735 c -4.40949,-0.0267 -9.959546,1.27693 -12.565125,1.96163 a 23.78037,23.78037 0 0 0 23.501924,20.29023 23.78037,23.78037 0 0 0 23.410976,-19.74763 c -4.061296,0.22587 -7.230925,2.41248 -12.626621,2.22519 -5.909651,-0.20516 -15.136799,-4.51292 -21.15013,-4.71806 -0.187917,-0.006 -0.378388,-0.0102 -0.571024,-0.0114 z"
         id="path1699" />
    </clipPath>
    <clipPath
       id="clipPath1854"
       clipPathUnits="userSpaceOnUse">
      <path
         id="path1856"
         d="m 49.649682,76.178812 a 23.78037,23.78037 0 0 0 -23.78046,23.780462 23.78037,23.78037 0 0 0 0.278536,3.489706 c 2.605579,-0.6847 8.155635,-1.98828 12.565125,-1.96163 0.192636,10e-4 0.383107,0.005 0.571024,0.0114 6.013331,0.20514 15.240479,4.5129 21.15013,4.71806 5.395696,0.18729 8.565325,-1.99933 12.626621,-2.22519 A 23.78037,23.78037 0 0 0 73.429627,99.959282 23.78037,23.78037 0 0 0 49.649682,76.17882 Z M 26.148274,103.45157 a 23.78037,23.78037 0 0 0 0.459922,2.30114 23.78037,23.78037 0 0 1 -0.459922,-2.30114 z m 46.911865,0.54312 a 23.78037,23.78037 0 0 1 -0.509013,2.27427 23.78037,23.78037 0 0 0 0.509013,-2.27427 z m -46.443675,1.79368 a 23.78037,23.78037 0 0 0 0.676445,2.20814 23.78037,23.78037 0 0 1 -0.676445,-2.20814 z m 45.924846,0.51883 a 23.78037,23.78037 0 0 1 -0.723987,2.18695 23.78037,23.78037 0 0 0 0.723987,-2.18695 z m -45.224115,1.76217 a 23.78037,23.78037 0 0 0 0.882118,2.10168 23.78037,23.78037 0 0 1 -0.882118,-2.10168 z m 44.470156,0.50746 a 23.78037,23.78037 0 0 1 -0.921393,2.06499 23.78037,23.78037 0 0 0 0.921393,-2.06499 z m -43.546181,1.68879 a 23.78037,23.78037 0 0 0 1.059884,1.95285 23.78037,23.78037 0 0 1 -1.059884,-1.95285 z m 42.568979,0.49144 a 23.78037,23.78037 0 0 1 -1.102259,1.92547 23.78037,23.78037 0 0 0 1.102259,-1.92547 z m -41.423828,1.61024 a 23.78037,23.78037 0 0 0 1.214911,1.78542 23.78037,23.78037 0 0 1 -1.214911,-1.78542 z m 40.232169,0.46147 a 23.78037,23.78037 0 0 1 -1.250569,1.75235 23.78037,23.78037 0 0 0 1.250569,-1.75235 z m -38.883416,1.51153 a 23.78037,23.78037 0 0 0 1.340488,1.60042 23.78037,23.78037 0 0 1 -1.340488,-1.60042 z m 37.4835,0.43719 a 23.78037,23.78037 0 0 1 -1.379244,1.57303 23.78037,23.78037 0 0 0 1.379244,-1.57303 z m -35.939923,1.39474 a 23.78037,23.78037 0 0 0 1.442288,1.40819 23.78037,23.78037 0 0 1 -1.442288,-1.40819 z m 34.356042,0.39791 a 23.78037,23.78037 0 0 1 -1.474845,1.3777 23.78037,23.78037 0 0 0 1.474845,-1.3777 z m -32.63832,1.26659 a 23.78037,23.78037 0 0 0 1.519288,1.21233 23.78037,23.78037 0 0 1 -1.519288,-1.21233 z m 30.874087,0.36484 a 23.78037,23.78037 0 0 1 -1.524455,1.16168 23.78037,23.78037 0 0 0 1.524455,-1.16168 z m -28.995648,1.12034 a 23.78037,23.78037 0 0 0 1.555461,1.00459 23.78037,23.78037 0 0 1 -1.555461,-1.00459 z m 27.069666,0.32867 a 23.78037,23.78037 0 0 1 -1.546159,0.94981 23.78037,23.78037 0 0 0 1.546159,-0.94981 z m -25.046532,0.96273 a 23.78037,23.78037 0 0 0 1.545124,0.7922 23.78037,23.78037 0 0 1 -1.545124,-0.7922 z m 22.989294,0.28008 a 23.78037,23.78037 0 0 1 -1.538926,0.74569 23.78037,23.78037 0 0 0 1.538926,-0.74569 z m -20.842656,0.80254 a 23.78037,23.78037 0 0 0 1.515669,0.59376 23.78037,23.78037 0 0 1 -1.515669,-0.59376 z m 18.663976,0.22944 a 23.78037,23.78037 0 0 1 -1.503267,0.55036 23.78037,23.78037 0 0 0 1.503267,-0.55036 z m -16.42277,0.62942 a 23.78037,23.78037 0 0 0 1.467094,0.41135 23.78037,23.78037 0 0 1 -1.467094,-0.41135 z m 14.152626,0.1757 a 23.78037,23.78037 0 0 1 -1.441772,0.37 23.78037,23.78037 0 0 0 1.441772,-0.37 z m -11.835455,0.45269 a 23.78037,23.78037 0 0 0 1.37356,0.24081 23.78037,23.78037 0 0 1 -1.37356,-0.24081 z m 9.496062,0.11885 a 23.78037,23.78037 0 0 1 -1.364257,0.20774 23.78037,23.78037 0 0 0 1.364257,-0.20774 z m -7.116878,0.27389 a 23.78037,23.78037 0 0 0 1.266073,0.093 23.78037,23.78037 0 0 1 -1.266073,-0.093 z m 4.728911,0.0579 a 23.78037,23.78037 0 0 1 -2.061374,0.10542 23.78037,23.78037 0 0 0 2.061374,-0.10542 z"
         style="display:inline;opacity:0.831;fill:#eff4ca;fill-opacity:1;stroke:none;stroke-width:0.7427702;stroke-miterlimit:4;stroke-dasharray:none;stroke-dashoffset:0;stroke-opacity:1" />
    </clipPath>
    <clipPath
       id="clipPath971"
       clipPathUnits="userSpaceOnUse">
      <ellipse
         ry="23.568857"
         rx="23.569"
         style="display:inline;opacity:0.28900003;fill:#dbe3de;fill-opacity:1;stroke:none;stroke-width:2.45439219;stroke-miterlimit:4;stroke-dasharray:none;stroke-dashoffset:0;stroke-opacity:1"
         id="ellipse973"
         cx="49.691437"
         cy="100.17762" />
    </clipPath>
  </defs>
  <metadata
     id="metadata5">
    <rdf:RDF>
      <cc:Work
         rdf:about="">
        <dc:format>image/svg+xml</dc:format>
        <dc:type
           rdf:resource="http://purl.org/dc/dcmitype/StillImage" />
        <dc:title></dc:title>
      </cc:Work>
    </rdf:RDF>
  </metadata>
  <g
     transform="translate(4.3138628,-8.0210056)"
     style="display:none"
     id="layer3">
    <rect
       y="8.0210056"
       x="-4.3138628"
       height="59.921181"
       width="274.35776"
       id="rect5585"
       style="display:inline;opacity:1;fill:#000000;fill-opacity:1;stroke:none;stroke-width:1.48146331;stroke-miterlimit:4;stroke-dasharray:none;stroke-dashoffset:0;stroke-opacity:1;enable-background:new" />
  </g>
  <g
     style="display:inline"
     transform="translate(4.3138628,-89.121006)"
     id="layer1">
    <g
       id="text5590"
       style="font-style:normal;font-weight:normal;font-size:13.12570095px;line-height:1.25;font-family:sans-serif;letter-spacing:0px;word-spacing:0px;display:inline;fill:#000000;fill-opacity:1;stroke:none;stroke-width:0.32814252;enable-background:new"
       transform="matrix(1.2239235,0,0,1.2239235,-55.039348,72.883979)"
       aria-label="Thomas Gast &amp; Associates Environmental Consultants">
      <path
         id="path998"
         style="font-style:normal;font-variant:normal;font-weight:normal;font-stretch:normal;font-family:Univers;-inkscape-font-specification:Univers;fill:#ffffff;fill-opacity:1;stroke-width:0.32814252"
         d="m 97.681496,34.081272 v -8.361071 h 3.176424 v -1.115685 h -7.652288 v 1.115685 h 3.17642 v 8.361071 z" />
      <path
         id="path1000"
         style="font-style:normal;font-variant:normal;font-weight:normal;font-stretch:normal;font-family:Univers;-inkscape-font-specification:Univers;fill:#ffffff;fill-opacity:1;stroke-width:0.32814252"
         d="m 102.10916,34.081272 h 1.24695 v -3.491436 c 0,-0.406897 0,-1.023805 0.21001,-1.391325 0.17063,-0.315016 0.63003,-0.879422 1.54883,-0.879422 1.41758,0 1.41758,1.273193 1.41758,1.86385 v 3.898333 h 1.26006 v -4.12147 c 0,-0.958176 -0.0919,-1.273193 -0.22313,-1.535707 -0.38065,-0.800668 -1.3782,-1.050056 -2.07386,-1.050056 -0.9188,0 -1.7326,0.393771 -2.13949,1.089433 v -3.84583 h -1.24695 z" />
      <path
         id="path1002"
         style="font-style:normal;font-variant:normal;font-weight:normal;font-stretch:normal;font-family:Univers;-inkscape-font-specification:Univers;fill:#ffffff;fill-opacity:1;stroke-width:0.32814252"
         d="m 109.64762,30.865475 c 0,1.929478 1.06318,3.438934 3.24205,3.438934 2.2445,0 3.33393,-1.601335 3.33393,-3.530814 0,-1.378198 -0.59066,-3.452059 -3.22892,-3.452059 -2.58577,0 -3.34706,1.916352 -3.34706,3.543939 z m 1.28632,-0.07875 c 0,-2.060735 1.27319,-2.559511 2.06074,-2.559511 1.15506,0 1.91635,0.866296 1.91635,2.507008 0,1.981981 -1.06318,2.651392 -1.99511,2.651392 -1.40445,0 -1.98198,-1.246942 -1.98198,-2.598889 z" />
      <path
         id="path1004"
         style="font-style:normal;font-variant:normal;font-weight:normal;font-stretch:normal;font-family:Univers;-inkscape-font-specification:Univers;fill:#ffffff;fill-opacity:1;stroke-width:0.32814252"
         d="m 118.14426,34.081272 h 1.24694 v -3.740825 c 0,-0.420022 0.0131,-0.958176 0.28877,-1.338821 0.14438,-0.196886 0.60378,-0.721914 1.44382,-0.721914 0.97131,0 1.44383,0.630034 1.44383,1.443827 v 4.357733 h 1.24694 V 30.39295 c 0,-0.288765 0,-1.010679 0.28877,-1.417576 0.17063,-0.236262 0.60378,-0.695662 1.40445,-0.695662 0.63003,0 1.05005,0.27564 1.26006,0.577531 0.11814,0.170634 0.22314,0.420023 0.22314,0.997553 v 4.226476 h 1.24694 v -4.423361 c 0,-1.942604 -1.47008,-2.336375 -2.41513,-2.336375 -1.45695,0 -1.9951,0.866296 -2.21824,1.233816 -0.23626,-0.485651 -0.69566,-1.233816 -2.15261,-1.233816 -0.56441,0 -1.45696,0.09188 -2.08699,1.12881 V 27.49217 h -1.24694 l 0.0263,0.879422 z" />
      <path
         id="path1006"
         style="font-style:normal;font-variant:normal;font-weight:normal;font-stretch:normal;font-family:Univers;-inkscape-font-specification:Univers;fill:#ffffff;fill-opacity:1;stroke-width:0.32814252"
         d="m 135.67179,34.081272 c -0.0919,-0.669411 -0.10501,-1.548833 -0.10501,-1.653838 l 0.0525,-3.150168 c 0,-0.301892 -0.0131,-0.616908 -0.22313,-1.010679 -0.3544,-0.669411 -1.3782,-0.971302 -2.33638,-0.971302 -0.69566,0 -1.62759,0.157508 -2.12636,0.708788 -0.38065,0.446273 -0.42002,0.905673 -0.4594,1.246941 h 1.23381 c 0.0131,-0.262514 0.0788,-1.115684 1.3257,-1.115684 0.35439,0 0.89255,0.105005 1.14194,0.433148 0.23626,0.288765 0.23626,0.643159 0.23626,1.456953 -0.38065,-0.02625 -0.57753,-0.03938 -0.89255,-0.03938 -0.52503,0 -1.57508,0.03938 -2.28387,0.433149 -0.9713,0.564405 -1.15506,1.40445 -1.15506,1.929478 0,1.089433 0.81379,1.942603 2.32325,1.942603 0.55128,0 1.44382,-0.105005 2.03448,-1.194438 0,0.341268 0.0263,0.656285 0.11813,0.984427 z m -1.26007,-3.202671 c -0.0263,0.918799 -0.0394,1.286319 -0.31502,1.732593 -0.30189,0.459399 -0.77441,0.708787 -1.40445,0.708787 -1.10256,0 -1.36507,-0.721913 -1.36507,-1.141936 0,-1.338821 1.87697,-1.338821 2.37575,-1.338821 0.30189,0 0.48565,0.01313 0.70879,0.03938 z" />
      <path
         id="path1008"
         style="font-style:normal;font-variant:normal;font-weight:normal;font-stretch:normal;font-family:Univers;-inkscape-font-specification:Univers;fill:#ffffff;fill-opacity:1;stroke-width:0.32814252"
         d="m 137.25528,32.125543 c -0.0131,1.588209 1.23381,2.139489 2.57263,2.139489 0.68254,0 1.3782,-0.09188 1.95573,-0.446274 0.48566,-0.301891 0.89255,-0.931925 0.89255,-1.666964 0,-0.420022 -0.13126,-0.879422 -0.49877,-1.22069 -0.39378,-0.36752 -0.78755,-0.472525 -2.61202,-0.905673 -0.34127,-0.09188 -0.93192,-0.236263 -0.93192,-0.840045 0,-0.945051 1.15506,-0.945051 1.33882,-0.945051 0.44627,0 1.31257,0.07875 1.27319,1.076308 h 1.26007 c 0,-0.27564 0,-0.590657 -0.17064,-0.958176 -0.39377,-0.787543 -1.54883,-1.023805 -2.37575,-1.023805 -1.52258,0 -2.57264,0.787542 -2.57264,1.995106 0,1.378199 1.15507,1.653839 2.53326,1.968856 0.98443,0.223136 1.44383,0.341268 1.44383,0.984427 0,0.223137 -0.0787,0.446274 -0.21001,0.616908 -0.26251,0.328143 -0.64316,0.420022 -1.15506,0.420022 -1.19444,0 -1.45695,-0.695662 -1.44383,-1.194438 z" />
      <path
         id="path1010"
         style="font-style:normal;font-variant:normal;font-weight:normal;font-stretch:normal;font-family:Univers;-inkscape-font-specification:Univers;fill:#ffffff;fill-opacity:1;stroke-width:0.32814252"
         d="m 155.89829,26.967142 c -0.0263,-0.367519 -0.0656,-0.918799 -0.63004,-1.509455 -0.90567,-0.918799 -2.04761,-1.010679 -2.79577,-1.010679 -0.47253,0 -1.70634,0.03938 -2.63827,0.66941 -1.79822,1.207565 -2.03448,3.438934 -2.03448,4.383984 0,1.338822 0.39377,2.664518 1.32569,3.609568 0.66941,0.682537 1.69322,1.181313 3.43894,1.181313 1.61446,0 2.82202,-0.393771 3.3733,-0.577531 v -4.672749 h -3.47831 v 1.089433 h 2.16574 v 2.8089 c -0.30189,0.09188 -0.98443,0.301891 -2.06073,0.301891 -0.94505,0 -1.90323,-0.223137 -2.52014,-0.931925 -0.69566,-0.826919 -0.86629,-2.178866 -0.86629,-2.979534 0,-0.892547 0.18376,-2.126363 1.01068,-3.045162 0.49877,-0.564405 1.24694,-0.800668 2.13948,-0.800668 1.28632,0 1.99511,0.603782 2.13949,1.483204 z" />
      <path
         id="path1012"
         style="font-style:normal;font-variant:normal;font-weight:normal;font-stretch:normal;font-family:Univers;-inkscape-font-specification:Univers;fill:#ffffff;fill-opacity:1;stroke-width:0.32814252"
         d="m 163.38445,34.081272 c -0.0919,-0.669411 -0.10501,-1.548833 -0.10501,-1.653838 l 0.0525,-3.150168 c 0,-0.301892 -0.0131,-0.616908 -0.22313,-1.010679 -0.3544,-0.669411 -1.3782,-0.971302 -2.33638,-0.971302 -0.69566,0 -1.62758,0.157508 -2.12636,0.708788 -0.38065,0.446273 -0.42002,0.905673 -0.4594,1.246941 h 1.23382 c 0.0131,-0.262514 0.0787,-1.115684 1.32569,-1.115684 0.3544,0 0.89255,0.105005 1.14194,0.433148 0.23626,0.288765 0.23626,0.643159 0.23626,1.456953 -0.38065,-0.02625 -0.57753,-0.03938 -0.89255,-0.03938 -0.52503,0 -1.57508,0.03938 -2.28387,0.433149 -0.9713,0.564405 -1.15506,1.40445 -1.15506,1.929478 0,1.089433 0.81379,1.942603 2.32325,1.942603 0.55128,0 1.44382,-0.105005 2.03448,-1.194438 0,0.341268 0.0263,0.656285 0.11813,0.984427 z m -1.26007,-3.202671 c -0.0263,0.918799 -0.0394,1.286319 -0.31502,1.732593 -0.30189,0.459399 -0.77441,0.708787 -1.40445,0.708787 -1.10256,0 -1.36507,-0.721913 -1.36507,-1.141936 0,-1.338821 1.87698,-1.338821 2.37575,-1.338821 0.30189,0 0.48565,0.01313 0.70879,0.03938 z" />
      <path
         id="path1014"
         style="font-style:normal;font-variant:normal;font-weight:normal;font-stretch:normal;font-family:Univers;-inkscape-font-specification:Univers;fill:#ffffff;fill-opacity:1;stroke-width:0.32814252"
         d="m 164.96794,32.125543 c -0.0131,1.588209 1.23381,2.139489 2.57264,2.139489 0.68253,0 1.3782,-0.09188 1.95573,-0.446274 0.48565,-0.301891 0.89254,-0.931925 0.89254,-1.666964 0,-0.420022 -0.13125,-0.879422 -0.49877,-1.22069 -0.39377,-0.36752 -0.78755,-0.472525 -2.61202,-0.905673 -0.34127,-0.09188 -0.93192,-0.236263 -0.93192,-0.840045 0,-0.945051 1.15506,-0.945051 1.33882,-0.945051 0.44627,0 1.31257,0.07875 1.27319,1.076308 h 1.26007 c 0,-0.27564 0,-0.590657 -0.17063,-0.958176 -0.39378,-0.787543 -1.54884,-1.023805 -2.37576,-1.023805 -1.52258,0 -2.57263,0.787542 -2.57263,1.995106 0,1.378199 1.15506,1.653839 2.53326,1.968856 0.98442,0.223136 1.44382,0.341268 1.44382,0.984427 0,0.223137 -0.0787,0.446274 -0.21001,0.616908 -0.26251,0.328143 -0.64316,0.420022 -1.15506,0.420022 -1.19444,0 -1.45695,-0.695662 -1.44383,-1.194438 z" />
      <path
         id="path1016"
         style="font-style:normal;font-variant:normal;font-weight:normal;font-stretch:normal;font-family:Univers;-inkscape-font-specification:Univers;fill:#ffffff;fill-opacity:1;stroke-width:0.32814252"
         d="m 171.11077,28.371592 h 1.16818 v 4.39711 c 0,1.076308 0.53816,1.40445 1.66697,1.40445 0.44627,0 0.80067,-0.03938 1.0238,-0.07875 v -0.958176 c -0.105,0.02625 -0.34126,0.06563 -0.59065,0.06563 -0.87942,0 -0.87942,-0.551279 -0.87942,-0.879422 v -3.950836 h 1.47007 v -0.905673 h -1.47007 v -1.77197 l -1.2207,0.393771 v 1.378199 h -1.16818 z" />
      <path
         id="path1018"
         style="font-style:normal;font-variant:normal;font-weight:normal;font-stretch:normal;font-family:Univers;-inkscape-font-specification:Univers;fill:#ffffff;fill-opacity:1;stroke-width:0.32814252"
         d="m 186.80029,27.938444 c 0,1.627587 -0.21002,2.323249 -0.69567,3.137043 l -2.32325,-2.296998 c 0.55128,-0.36752 1.8376,-1.207565 1.8376,-2.598889 0,-0.498776 -0.21001,-0.971302 -0.5644,-1.299444 -0.30189,-0.27564 -0.76129,-0.590657 -1.96886,-0.590657 -1.64071,0 -2.54638,0.853171 -2.54638,2.086987 0,1.12881 0.69566,1.811346 1.08943,2.178866 -0.98443,0.735039 -1.99511,1.535707 -1.99511,3.018911 0,1.509456 1.15506,2.730146 3.18955,2.730146 1.29944,0 2.402,-0.525028 3.28142,-1.391324 l 1.23382,1.168187 h 1.8376 l -2.25762,-2.191992 c 0.87942,-1.168187 1.14193,-2.113238 1.15506,-3.950836 z m -3.85896,-0.01313 c -0.57753,-0.564405 -0.99755,-1.076307 -0.99755,-1.614461 0,-0.498776 0.47252,-0.971302 1.18131,-0.971302 0.78754,0 1.08943,0.511903 1.08943,0.892548 0,0.826919 -0.94505,1.470078 -1.27319,1.693215 z m 2.31012,4.200225 c -0.34127,0.354394 -1.03693,1.076307 -2.23137,1.076307 -0.78754,0 -2.00823,-0.354394 -2.00823,-1.666964 0,-0.708788 0.36752,-1.351947 1.45695,-2.152615 z" />
      <path
         id="path1020"
         style="font-style:normal;font-variant:normal;font-weight:normal;font-stretch:normal;font-family:Univers;-inkscape-font-specification:Univers;fill:#ffffff;fill-opacity:1;stroke-width:0.32814252"
         d="m 192.2856,34.081272 h 1.35194 l 1.02381,-2.467632 h 4.39711 l 1.0238,2.467632 h 1.4307 l -3.8327,-9.476756 h -1.40445 z m 4.63337,-8.177312 1.74572,4.646499 h -3.58332 z" />
      <path
         id="path1022"
         style="font-style:normal;font-variant:normal;font-weight:normal;font-stretch:normal;font-family:Univers;-inkscape-font-specification:Univers;fill:#ffffff;fill-opacity:1;stroke-width:0.32814252"
         d="m 202.21724,32.125543 c -0.0131,1.588209 1.23382,2.139489 2.57264,2.139489 0.68254,0 1.3782,-0.09188 1.95573,-0.446274 0.48565,-0.301891 0.89255,-0.931925 0.89255,-1.666964 0,-0.420022 -0.13126,-0.879422 -0.49878,-1.22069 -0.39377,-0.36752 -0.78754,-0.472525 -2.61201,-0.905673 -0.34127,-0.09188 -0.93193,-0.236263 -0.93193,-0.840045 0,-0.945051 1.15507,-0.945051 1.33882,-0.945051 0.44628,0 1.31257,0.07875 1.2732,1.076308 h 1.26007 c 0,-0.27564 0,-0.590657 -0.17064,-0.958176 -0.39377,-0.787543 -1.54883,-1.023805 -2.37575,-1.023805 -1.52258,0 -2.57264,0.787542 -2.57264,1.995106 0,1.378199 1.15506,1.653839 2.53326,1.968856 0.98443,0.223136 1.44383,0.341268 1.44383,0.984427 0,0.223137 -0.0788,0.446274 -0.21001,0.616908 -0.26252,0.328143 -0.64316,0.420022 -1.15506,0.420022 -1.19444,0 -1.45696,-0.695662 -1.44383,-1.194438 z" />
      <path
         id="path1024"
         style="font-style:normal;font-variant:normal;font-weight:normal;font-stretch:normal;font-family:Univers;-inkscape-font-specification:Univers;fill:#ffffff;fill-opacity:1;stroke-width:0.32814252"
         d="m 208.7801,32.125543 c -0.0131,1.588209 1.23381,2.139489 2.57263,2.139489 0.68254,0 1.3782,-0.09188 1.95573,-0.446274 0.48565,-0.301891 0.89255,-0.931925 0.89255,-1.666964 0,-0.420022 -0.13126,-0.879422 -0.49878,-1.22069 -0.39377,-0.36752 -0.78754,-0.472525 -2.61201,-0.905673 -0.34127,-0.09188 -0.93193,-0.236263 -0.93193,-0.840045 0,-0.945051 1.15507,-0.945051 1.33883,-0.945051 0.44627,0 1.31257,0.07875 1.27319,1.076308 h 1.26007 c 0,-0.27564 0,-0.590657 -0.17064,-0.958176 -0.39377,-0.787543 -1.54883,-1.023805 -2.37575,-1.023805 -1.52258,0 -2.57264,0.787542 -2.57264,1.995106 0,1.378199 1.15506,1.653839 2.53326,1.968856 0.98443,0.223136 1.44383,0.341268 1.44383,0.984427 0,0.223137 -0.0788,0.446274 -0.21001,0.616908 -0.26252,0.328143 -0.64316,0.420022 -1.15506,0.420022 -1.19444,0 -1.45696,-0.695662 -1.44383,-1.194438 z" />
      <path
         id="path1026"
         style="font-style:normal;font-variant:normal;font-weight:normal;font-stretch:normal;font-family:Univers;-inkscape-font-specification:Univers;fill:#ffffff;fill-opacity:1;stroke-width:0.32814252"
         d="m 215.44795,30.865475 c 0,1.929478 1.06318,3.438934 3.24205,3.438934 2.2445,0 3.33393,-1.601335 3.33393,-3.530814 0,-1.378198 -0.59066,-3.452059 -3.22892,-3.452059 -2.58577,0 -3.34706,1.916352 -3.34706,3.543939 z m 1.28632,-0.07875 c 0,-2.060735 1.27319,-2.559511 2.06074,-2.559511 1.15506,0 1.91635,0.866296 1.91635,2.507008 0,1.981981 -1.06318,2.651392 -1.99511,2.651392 -1.40445,0 -1.98198,-1.246942 -1.98198,-2.598889 z" />
      <path
         id="path1028"
         style="font-style:normal;font-variant:normal;font-weight:normal;font-stretch:normal;font-family:Univers;-inkscape-font-specification:Univers;fill:#ffffff;fill-opacity:1;stroke-width:0.32814252"
         d="m 228.9586,29.605408 c -0.0262,-0.36752 -0.0656,-0.905673 -0.55128,-1.470078 -0.60379,-0.721914 -1.58821,-0.813794 -2.02136,-0.813794 -1.31257,0 -2.99266,0.813794 -2.99266,3.557065 0,1.365073 0.39377,2.060735 0.78754,2.520135 0.69566,0.76129 1.71947,0.85317 2.16574,0.85317 1.62759,0 2.58577,-1.076307 2.66452,-2.362626 h -1.24694 c -0.0263,0.643159 -0.38065,1.430701 -1.4307,1.430701 -1.31257,0 -1.64072,-1.260067 -1.64072,-2.612014 0,-0.498777 0,-2.480757 1.70634,-2.480757 1.19444,0 1.28632,1.076307 1.31257,1.378198 z" />
      <path
         id="path1030"
         style="font-style:normal;font-variant:normal;font-weight:normal;font-stretch:normal;font-family:Univers;-inkscape-font-specification:Univers;fill:#ffffff;fill-opacity:1;stroke-width:0.32814252"
         d="m 230.40242,25.982715 h 1.48321 v -1.351948 h -1.48321 z m 0.13126,8.098557 h 1.23382 V 27.49217 h -1.23382 z" />
      <path
         id="path1032"
         style="font-style:normal;font-variant:normal;font-weight:normal;font-stretch:normal;font-family:Univers;-inkscape-font-specification:Univers;fill:#ffffff;fill-opacity:1;stroke-width:0.32814252"
         d="m 239.29304,34.081272 c -0.0919,-0.669411 -0.10501,-1.548833 -0.10501,-1.653838 l 0.0525,-3.150168 c 0,-0.301892 -0.0131,-0.616908 -0.22314,-1.010679 -0.35439,-0.669411 -1.3782,-0.971302 -2.33637,-0.971302 -0.69567,0 -1.62759,0.157508 -2.12637,0.708788 -0.38064,0.446273 -0.42002,0.905673 -0.4594,1.246941 h 1.23382 c 0.0131,-0.262514 0.0787,-1.115684 1.32569,-1.115684 0.3544,0 0.89255,0.105005 1.14194,0.433148 0.23626,0.288765 0.23626,0.643159 0.23626,1.456953 -0.38064,-0.02625 -0.57753,-0.03938 -0.89255,-0.03938 -0.52502,0 -1.57508,0.03938 -2.28387,0.433149 -0.9713,0.564405 -1.15506,1.40445 -1.15506,1.929478 0,1.089433 0.81379,1.942603 2.32325,1.942603 0.55128,0 1.44383,-0.105005 2.03448,-1.194438 0,0.341268 0.0263,0.656285 0.11814,0.984427 z m -1.26007,-3.202671 c -0.0263,0.918799 -0.0394,1.286319 -0.31501,1.732593 -0.3019,0.459399 -0.77442,0.708787 -1.40445,0.708787 -1.10256,0 -1.36508,-0.721913 -1.36508,-1.141936 0,-1.338821 1.87698,-1.338821 2.37575,-1.338821 0.3019,0 0.48566,0.01313 0.70879,0.03938 z" />
      <path
         id="path1034"
         style="font-style:normal;font-variant:normal;font-weight:normal;font-stretch:normal;font-family:Univers;-inkscape-font-specification:Univers;fill:#ffffff;fill-opacity:1;stroke-width:0.32814252"
         d="m 240.45652,28.371592 h 1.16818 v 4.39711 c 0,1.076308 0.53816,1.40445 1.66697,1.40445 0.44627,0 0.80067,-0.03938 1.0238,-0.07875 v -0.958176 c -0.105,0.02625 -0.34127,0.06563 -0.59065,0.06563 -0.87943,0 -0.87943,-0.551279 -0.87943,-0.879422 v -3.950836 h 1.47008 v -0.905673 h -1.47008 v -1.77197 l -1.22069,0.393771 v 1.378199 h -1.16818 z" />
      <path
         id="path1036"
         style="font-style:normal;font-variant:normal;font-weight:normal;font-stretch:normal;font-family:Univers;-inkscape-font-specification:Univers;fill:#ffffff;fill-opacity:1;stroke-width:0.32814252"
         d="m 251.33751,31.009858 c 0.0263,-1.076307 0.0919,-3.688322 -2.8614,-3.688322 -0.38065,0 -1.16819,0.03938 -1.79822,0.485651 -1.03693,0.721914 -1.29945,1.798221 -1.29945,3.097665 0,2.086987 0.98443,3.373306 3.05829,3.373306 1.3257,0 1.98198,-0.55128 2.27075,-0.879422 0.47252,-0.511903 0.52503,-1.050056 0.5644,-1.378199 h -1.23381 c -0.10501,0.945051 -0.74817,1.365073 -1.54883,1.365073 -1.35195,0 -1.91636,-1.010679 -1.89011,-2.375752 z m -4.68587,-0.866296 c 0.0263,-1.456953 0.99755,-1.942604 1.79822,-1.942604 1.52258,0 1.64071,1.31257 1.62758,1.942604 z" />
      <path
         id="path1038"
         style="font-style:normal;font-variant:normal;font-weight:normal;font-stretch:normal;font-family:Univers;-inkscape-font-specification:Univers;fill:#ffffff;fill-opacity:1;stroke-width:0.32814252"
         d="m 252.56662,32.125543 c -0.0131,1.588209 1.23381,2.139489 2.57264,2.139489 0.68253,0 1.37819,-0.09188 1.95572,-0.446274 0.48566,-0.301891 0.89255,-0.931925 0.89255,-1.666964 0,-0.420022 -0.13125,-0.879422 -0.49877,-1.22069 -0.39378,-0.36752 -0.78755,-0.472525 -2.61202,-0.905673 -0.34127,-0.09188 -0.93192,-0.236263 -0.93192,-0.840045 0,-0.945051 1.15506,-0.945051 1.33882,-0.945051 0.44627,0 1.31257,0.07875 1.27319,1.076308 h 1.26007 c 0,-0.27564 0,-0.590657 -0.17064,-0.958176 -0.39377,-0.787543 -1.54883,-1.023805 -2.37575,-1.023805 -1.52258,0 -2.57264,0.787542 -2.57264,1.995106 0,1.378199 1.15507,1.653839 2.53326,1.968856 0.98443,0.223136 1.44383,0.341268 1.44383,0.984427 0,0.223137 -0.0788,0.446274 -0.21001,0.616908 -0.26251,0.328143 -0.64316,0.420022 -1.15506,0.420022 -1.19444,0 -1.45695,-0.695662 -1.44383,-1.194438 z" />
      <path
         id="path1040"
         style="font-style:normal;font-variant:normal;font-weight:normal;font-stretch:normal;font-family:Univers;-inkscape-font-specification:Univers;fill:#ffffff;fill-opacity:1;stroke-width:0.32814252"
         d="m 93.927546,50.978385 h 6.050948 v -1.155062 h -4.738378 v -3.150168 h 4.410236 v -1.102559 h -4.410236 v -2.953283 h 4.633372 v -1.115684 h -5.945942 z" />
      <path
         id="path1042"
         style="font-style:normal;font-variant:normal;font-weight:normal;font-stretch:normal;font-family:Univers;-inkscape-font-specification:Univers;fill:#ffffff;fill-opacity:1;stroke-width:0.32814252"
         d="m 102.14854,50.978385 h 1.23382 v -3.793328 c 0,-1.325695 0.82692,-1.968855 1.71946,-1.968855 0.42003,0 0.85317,0.144383 1.16819,0.446274 0.30189,0.301891 0.3544,0.695662 0.3544,1.12881 v 4.187099 h 1.26006 v -4.475864 c 0,-2.021358 -1.79822,-2.244495 -2.38887,-2.244495 -1.49633,0 -1.96886,0.918799 -2.11324,1.194439 l -0.0131,-1.063182 h -1.23381 l 0.0131,0.761291 z" />
      <path
         id="path1044"
         style="font-style:normal;font-variant:normal;font-weight:normal;font-stretch:normal;font-family:Univers;-inkscape-font-specification:Univers;fill:#ffffff;fill-opacity:1;stroke-width:0.32814252"
         d="m 111.63576,50.978385 h 1.24694 l 2.88765,-6.589102 h -1.36507 l -2.04761,5.224029 -2.10011,-5.224029 h -1.3782 z" />
      <path
         id="path1046"
         style="font-style:normal;font-variant:normal;font-weight:normal;font-stretch:normal;font-family:Univers;-inkscape-font-specification:Univers;fill:#ffffff;fill-opacity:1;stroke-width:0.32814252"
         d="m 117.06508,42.879827 h 1.4832 V 41.52788 h -1.4832 z m 0.13126,8.098558 h 1.23381 v -6.589102 h -1.23381 z" />
      <path
         id="path1048"
         style="font-style:normal;font-variant:normal;font-weight:normal;font-stretch:normal;font-family:Univers;-inkscape-font-specification:Univers;fill:#ffffff;fill-opacity:1;stroke-width:0.32814252"
         d="m 120.88917,50.978385 h 1.24694 v -3.504562 c 0,-1.128811 0.34127,-1.995107 1.79822,-1.995107 0.14439,0 0.26252,0 0.3544,0.01313 0.0919,0.01313 0.17063,0.02625 0.23626,0.0525 V 44.33678 c -0.21001,-0.01312 -0.48565,-0.02625 -0.85317,0.02625 -0.55128,0.07875 -1.33882,0.380645 -1.57509,1.299444 l -0.0262,-1.273193 h -1.24694 c 0.0394,0.433148 0.0656,0.892548 0.0656,1.338822 z" />
      <path
         id="path1050"
         style="font-style:normal;font-variant:normal;font-weight:normal;font-stretch:normal;font-family:Univers;-inkscape-font-specification:Univers;fill:#ffffff;fill-opacity:1;stroke-width:0.32814252"
         d="m 125.43948,47.762588 c 0,1.929478 1.06318,3.438934 3.24205,3.438934 2.24449,0 3.33393,-1.601336 3.33393,-3.530814 0,-1.378198 -0.59066,-3.452059 -3.22892,-3.452059 -2.58577,0 -3.34706,1.916352 -3.34706,3.543939 z m 1.28632,-0.07875 c 0,-2.060735 1.27319,-2.559512 2.06074,-2.559512 1.15506,0 1.91635,0.866297 1.91635,2.507009 0,1.981981 -1.06318,2.651392 -1.99511,2.651392 -1.40445,0 -1.98198,-1.246942 -1.98198,-2.598889 z" />
      <path
         id="path1052"
         style="font-style:normal;font-variant:normal;font-weight:normal;font-stretch:normal;font-family:Univers;-inkscape-font-specification:Univers;fill:#ffffff;fill-opacity:1;stroke-width:0.32814252"
         d="m 133.98862,50.978385 h 1.23382 v -3.793328 c 0,-1.325695 0.82692,-1.968855 1.71946,-1.968855 0.42003,0 0.85317,0.144383 1.16819,0.446274 0.30189,0.301891 0.35439,0.695662 0.35439,1.12881 v 4.187099 h 1.26007 v -4.475864 c 0,-2.021358 -1.79822,-2.244495 -2.38888,-2.244495 -1.49633,0 -1.96885,0.918799 -2.11323,1.194439 l -0.0131,-1.063182 h -1.23382 l 0.0131,0.761291 z" />
      <path
         id="path1054"
         style="font-style:normal;font-variant:normal;font-weight:normal;font-stretch:normal;font-family:Univers;-inkscape-font-specification:Univers;fill:#ffffff;fill-opacity:1;stroke-width:0.32814252"
         d="m 141.96023,50.978385 h 1.24694 V 47.23756 c 0,-0.420022 0.0131,-0.958176 0.28876,-1.338821 0.14439,-0.196886 0.60379,-0.721914 1.44383,-0.721914 0.9713,0 1.44383,0.630034 1.44383,1.443827 v 4.357733 h 1.24694 v -3.688322 c 0,-0.288766 0,-1.010679 0.28876,-1.417576 0.17064,-0.236262 0.60379,-0.695662 1.40445,-0.695662 0.63004,0 1.05006,0.27564 1.26007,0.577531 0.11813,0.170634 0.22314,0.420022 0.22314,0.997553 v 4.226476 h 1.24694 v -4.423361 c 0,-1.942604 -1.47008,-2.336375 -2.41513,-2.336375 -1.45695,0 -1.9951,0.866296 -2.21824,1.233816 -0.23626,-0.485651 -0.69566,-1.233816 -2.15262,-1.233816 -0.5644,0 -1.45695,0.09188 -2.08698,1.12881 v -0.958176 h -1.24694 l 0.0263,0.879422 z" />
      <path
         id="path1056"
         style="font-style:normal;font-variant:normal;font-weight:normal;font-stretch:normal;font-family:Univers;-inkscape-font-specification:Univers;fill:#ffffff;fill-opacity:1;stroke-width:0.32814252"
         d="m 159.84215,47.906971 c 0.0263,-1.076308 0.0919,-3.688322 -2.86141,-3.688322 -0.38064,0 -1.16818,0.03938 -1.79822,0.485651 -1.03693,0.721913 -1.29944,1.798221 -1.29944,3.097665 0,2.086987 0.98443,3.373305 3.05829,3.373305 1.32569,0 1.98198,-0.551279 2.27074,-0.879422 0.47253,-0.511902 0.52503,-1.050056 0.56441,-1.378198 h -1.23382 c -0.105,0.94505 -0.74816,1.365073 -1.54883,1.365073 -1.35195,0 -1.91635,-1.010679 -1.8901,-2.375752 z m -4.68588,-0.866296 c 0.0263,-1.456953 0.99756,-1.942604 1.79822,-1.942604 1.52258,0 1.64072,1.31257 1.62759,1.942604 z" />
      <path
         id="path1058"
         style="font-style:normal;font-variant:normal;font-weight:normal;font-stretch:normal;font-family:Univers;-inkscape-font-specification:Univers;fill:#ffffff;fill-opacity:1;stroke-width:0.32814252"
         d="m 161.70128,50.978385 h 1.23382 v -3.793328 c 0,-1.325695 0.82692,-1.968855 1.71947,-1.968855 0.42002,0 0.85317,0.144383 1.16818,0.446274 0.30189,0.301891 0.3544,0.695662 0.3544,1.12881 v 4.187099 h 1.26006 v -4.475864 c 0,-2.021358 -1.79822,-2.244495 -2.38887,-2.244495 -1.49633,0 -1.96886,0.918799 -2.11324,1.194439 l -0.0131,-1.063182 h -1.23381 l 0.0131,0.761291 z" />
      <path
         id="path1060"
         style="font-style:normal;font-variant:normal;font-weight:normal;font-stretch:normal;font-family:Univers;-inkscape-font-specification:Univers;fill:#ffffff;fill-opacity:1;stroke-width:0.32814252"
         d="m 168.67534,45.268705 h 1.16818 v 4.39711 c 0,1.076307 0.53816,1.40445 1.66697,1.40445 0.44627,0 0.80066,-0.03938 1.0238,-0.07875 v -0.958177 c -0.105,0.02625 -0.34127,0.06563 -0.59066,0.06563 -0.87942,0 -0.87942,-0.55128 -0.87942,-0.879422 V 45.26871 h 1.47008 v -0.905673 h -1.47008 v -1.77197 l -1.22069,0.393771 v 1.378199 h -1.16818 z" />
      <path
         id="path1062"
         style="font-style:normal;font-variant:normal;font-weight:normal;font-stretch:normal;font-family:Univers;-inkscape-font-specification:Univers;fill:#ffffff;fill-opacity:1;stroke-width:0.32814252"
         d="m 179.20194,50.978385 c -0.0919,-0.669411 -0.105,-1.548833 -0.105,-1.653838 l 0.0525,-3.150169 c 0,-0.301891 -0.0131,-0.616908 -0.22314,-1.010679 -0.35439,-0.66941 -1.37819,-0.971302 -2.33637,-0.971302 -0.69566,0 -1.62759,0.157509 -2.12636,0.708788 -0.38065,0.446274 -0.42003,0.905674 -0.4594,1.246942 h 1.23381 c 0.0131,-0.262514 0.0788,-1.115685 1.3257,-1.115685 0.35439,0 0.89255,0.105006 1.14193,0.433148 0.23627,0.288766 0.23627,0.64316 0.23627,1.456953 -0.38065,-0.02625 -0.57753,-0.03938 -0.89255,-0.03938 -0.52503,0 -1.57508,0.03938 -2.28387,0.433148 -0.9713,0.564405 -1.15506,1.40445 -1.15506,1.929478 0,1.089434 0.81379,1.942604 2.32325,1.942604 0.55127,0 1.44382,-0.105006 2.03448,-1.194439 0,0.341269 0.0263,0.656285 0.11813,0.984428 z m -1.26006,-3.202671 c -0.0263,0.918799 -0.0394,1.286319 -0.31502,1.732592 -0.30189,0.4594 -0.77442,0.708788 -1.40445,0.708788 -1.10256,0 -1.36507,-0.721913 -1.36507,-1.141936 0,-1.338821 1.87697,-1.338821 2.37575,-1.338821 0.30189,0 0.48565,0.01313 0.70879,0.03938 z" />
      <path
         id="path1064"
         style="font-style:normal;font-variant:normal;font-weight:normal;font-stretch:normal;font-family:Univers;-inkscape-font-specification:Univers;fill:#ffffff;fill-opacity:1;stroke-width:0.32814252"
         d="m 181.40234,50.978385 h 1.23382 v -9.46363 h -1.23382 z" />
      <path
         id="path1066"
         style="font-style:normal;font-variant:normal;font-weight:normal;font-stretch:normal;font-family:Univers;-inkscape-font-specification:Univers;fill:#ffffff;fill-opacity:1;stroke-width:0.32814252"
         d="m 195.77089,44.06114 c -0.17064,-2.152614 -2.06074,-2.690768 -3.39956,-2.690768 -3.37331,0 -4.14772,2.979534 -4.14772,4.97464 0,1.837599 0.64316,4.777756 3.97708,4.777756 1.62759,0 3.34706,-0.774417 3.54394,-2.638266 h -1.44382 c -0.0394,0.223137 -0.11813,0.630033 -0.4594,0.997553 -0.4069,0.420022 -0.95818,0.564405 -1.53571,0.564405 -2.16574,0 -2.67764,-1.929478 -2.67764,-3.714573 0,-1.575084 0.40689,-3.911459 2.69077,-3.911459 1.82447,0 1.9951,1.31257 2.04761,1.640712 z" />
      <path
         id="path1068"
         style="font-style:normal;font-variant:normal;font-weight:normal;font-stretch:normal;font-family:Univers;-inkscape-font-specification:Univers;fill:#ffffff;fill-opacity:1;stroke-width:0.32814252"
         d="m 196.93866,47.762588 c 0,1.929478 1.06318,3.438934 3.24205,3.438934 2.24449,0 3.33393,-1.601336 3.33393,-3.530814 0,-1.378198 -0.59066,-3.452059 -3.22893,-3.452059 -2.58576,0 -3.34705,1.916352 -3.34705,3.543939 z m 1.28632,-0.07875 c 0,-2.060735 1.27319,-2.559512 2.06073,-2.559512 1.15507,0 1.91636,0.866297 1.91636,2.507009 0,1.981981 -1.06319,2.651392 -1.99511,2.651392 -1.40445,0 -1.98198,-1.246942 -1.98198,-2.598889 z" />
      <path
         id="path1070"
         style="font-style:normal;font-variant:normal;font-weight:normal;font-stretch:normal;font-family:Univers;-inkscape-font-specification:Univers;fill:#ffffff;fill-opacity:1;stroke-width:0.32814252"
         d="m 205.4878,50.978385 h 1.23381 v -3.793328 c 0,-1.325695 0.82692,-1.968855 1.71947,-1.968855 0.42002,0 0.85317,0.144383 1.16819,0.446274 0.30189,0.301891 0.35439,0.695662 0.35439,1.12881 v 4.187099 h 1.26007 v -4.475864 c 0,-2.021358 -1.79822,-2.244495 -2.38888,-2.244495 -1.49633,0 -1.96885,0.918799 -2.11324,1.194439 l -0.0131,-1.063182 h -1.23382 l 0.0131,0.761291 z" />
      <path
         id="path1072"
         style="font-style:normal;font-variant:normal;font-weight:normal;font-stretch:normal;font-family:Univers;-inkscape-font-specification:Univers;fill:#ffffff;fill-opacity:1;stroke-width:0.32814252"
         d="m 212.88187,49.022655 c -0.0131,1.58821 1.23382,2.13949 2.57264,2.13949 0.68254,0 1.3782,-0.09188 1.95573,-0.446274 0.48565,-0.301891 0.89255,-0.931925 0.89255,-1.666964 0,-0.420023 -0.13126,-0.879422 -0.49878,-1.22069 -0.39377,-0.36752 -0.78754,-0.472526 -2.61201,-0.905674 -0.34127,-0.09188 -0.93193,-0.236262 -0.93193,-0.840045 0,-0.94505 1.15506,-0.94505 1.33882,-0.94505 0.44628,0 1.31257,0.07875 1.27319,1.076307 h 1.26007 c 0,-0.275639 0,-0.590656 -0.17063,-0.958176 -0.39377,-0.787542 -1.54883,-1.023804 -2.37575,-1.023804 -1.52259,0 -2.57264,0.787542 -2.57264,1.995106 0,1.378199 1.15506,1.653838 2.53326,1.968855 0.98443,0.223137 1.44383,0.341269 1.44383,0.984428 0,0.223137 -0.0788,0.446274 -0.21001,0.616908 -0.26252,0.328142 -0.64316,0.420022 -1.15507,0.420022 -1.19444,0 -1.45695,-0.695662 -1.44382,-1.194439 z" />
      <path
         id="path1074"
         style="font-style:normal;font-variant:normal;font-weight:normal;font-stretch:normal;font-family:Univers;-inkscape-font-specification:Univers;fill:#ffffff;fill-opacity:1;stroke-width:0.32814252"
         d="m 219.90412,44.389283 v 4.423361 c 0,1.299445 0.76129,2.231369 2.38888,2.231369 1.41758,0 1.86385,-0.735039 2.10011,-1.194438 l 0.0263,1.12881 h 1.28632 c -0.0131,-0.36752 -0.0394,-1.102559 -0.0394,-1.233816 v -5.355286 h -1.2732 v 3.727699 c 0,0.328143 0,0.840045 -0.27564,1.233816 -0.35439,0.525028 -0.93192,0.735039 -1.54883,0.735039 -1.26007,0 -1.40445,-0.813793 -1.40445,-1.456953 v -4.239601 z" />
      <path
         id="path1076"
         style="font-style:normal;font-variant:normal;font-weight:normal;font-stretch:normal;font-family:Univers;-inkscape-font-specification:Univers;fill:#ffffff;fill-opacity:1;stroke-width:0.32814252"
         d="m 228.08575,50.978385 h 1.23381 v -9.46363 h -1.23381 z" />
      <path
         id="path1078"
         style="font-style:normal;font-variant:normal;font-weight:normal;font-stretch:normal;font-family:Univers;-inkscape-font-specification:Univers;fill:#ffffff;fill-opacity:1;stroke-width:0.32814252"
         d="m 230.68914,45.268705 h 1.16818 v 4.39711 c 0,1.076307 0.53816,1.40445 1.66697,1.40445 0.44627,0 0.80067,-0.03938 1.0238,-0.07875 v -0.958177 c -0.105,0.02625 -0.34127,0.06563 -0.59065,0.06563 -0.87943,0 -0.87943,-0.55128 -0.87943,-0.879422 V 45.26871 h 1.47008 v -0.905673 h -1.47008 v -1.77197 l -1.22069,0.393771 v 1.378199 h -1.16818 z" />
      <path
         id="path1080"
         style="font-style:normal;font-variant:normal;font-weight:normal;font-stretch:normal;font-family:Univers;-inkscape-font-specification:Univers;fill:#ffffff;fill-opacity:1;stroke-width:0.32814252"
         d="m 241.21575,50.978385 c -0.0919,-0.669411 -0.105,-1.548833 -0.105,-1.653838 l 0.0525,-3.150169 c 0,-0.301891 -0.0131,-0.616908 -0.22314,-1.010679 -0.35439,-0.66941 -1.37819,-0.971302 -2.33637,-0.971302 -0.69566,0 -1.62759,0.157509 -2.12636,0.708788 -0.38065,0.446274 -0.42003,0.905674 -0.4594,1.246942 h 1.23381 c 0.0131,-0.262514 0.0788,-1.115685 1.3257,-1.115685 0.35439,0 0.89255,0.105006 1.14193,0.433148 0.23627,0.288766 0.23627,0.64316 0.23627,1.456953 -0.38065,-0.02625 -0.57753,-0.03938 -0.89255,-0.03938 -0.52503,0 -1.57509,0.03938 -2.28387,0.433148 -0.9713,0.564405 -1.15506,1.40445 -1.15506,1.929478 0,1.089434 0.81379,1.942604 2.32324,1.942604 0.55128,0 1.44383,-0.105006 2.03449,-1.194439 0,0.341269 0.0263,0.656285 0.11813,0.984428 z m -1.26006,-3.202671 c -0.0263,0.918799 -0.0394,1.286319 -0.31502,1.732592 -0.30189,0.4594 -0.77442,0.708788 -1.40445,0.708788 -1.10256,0 -1.36507,-0.721913 -1.36507,-1.141936 0,-1.338821 1.87697,-1.338821 2.37575,-1.338821 0.30189,0 0.48565,0.01313 0.70879,0.03938 z" />
      <path
         id="path1082"
         style="font-style:normal;font-variant:normal;font-weight:normal;font-stretch:normal;font-family:Univers;-inkscape-font-specification:Univers;fill:#ffffff;fill-opacity:1;stroke-width:0.32814252"
         d="m 243.42927,50.978385 h 1.23382 v -3.793328 c 0,-1.325695 0.82692,-1.968855 1.71946,-1.968855 0.42003,0 0.85317,0.144383 1.16819,0.446274 0.30189,0.301891 0.3544,0.695662 0.3544,1.12881 v 4.187099 h 1.26006 v -4.475864 c 0,-2.021358 -1.79822,-2.244495 -2.38887,-2.244495 -1.49633,0 -1.96886,0.918799 -2.11324,1.194439 l -0.0131,-1.063182 h -1.23381 l 0.0131,0.761291 z" />
      <path
         id="path1084"
         style="font-style:normal;font-variant:normal;font-weight:normal;font-stretch:normal;font-family:Univers;-inkscape-font-specification:Univers;fill:#ffffff;fill-opacity:1;stroke-width:0.32814252"
         d="m 250.40332,45.268705 h 1.16819 v 4.39711 c 0,1.076307 0.53816,1.40445 1.66697,1.40445 0.44627,0 0.80066,-0.03938 1.0238,-0.07875 v -0.958177 c -0.10501,0.02625 -0.34127,0.06563 -0.59066,0.06563 -0.87942,0 -0.87942,-0.55128 -0.87942,-0.879422 V 45.26871 h 1.47008 v -0.905673 h -1.47008 v -1.77197 l -1.22069,0.393771 v 1.378199 h -1.16819 z" />
      <path
         id="path1086"
         style="font-style:normal;font-variant:normal;font-weight:normal;font-stretch:normal;font-family:Univers;-inkscape-font-specification:Univers;fill:#ffffff;fill-opacity:1;stroke-width:0.32814252"
         d="m 255.20714,49.022655 c -0.0131,1.58821 1.23381,2.13949 2.57263,2.13949 0.68254,0 1.3782,-0.09188 1.95573,-0.446274 0.48565,-0.301891 0.89255,-0.931925 0.89255,-1.666964 0,-0.420023 -0.13126,-0.879422 -0.49878,-1.22069 -0.39377,-0.36752 -0.78754,-0.472526 -2.61201,-0.905674 -0.34127,-0.09188 -0.93193,-0.236262 -0.93193,-0.840045 0,-0.94505 1.15507,-0.94505 1.33883,-0.94505 0.44627,0 1.31257,0.07875 1.27319,1.076307 h 1.26007 c 0,-0.275639 0,-0.590656 -0.17064,-0.958176 -0.39377,-0.787542 -1.54883,-1.023804 -2.37575,-1.023804 -1.52258,0 -2.57264,0.787542 -2.57264,1.995106 0,1.378199 1.15506,1.653838 2.53326,1.968855 0.98443,0.223137 1.44383,0.341269 1.44383,0.984428 0,0.223137 -0.0787,0.446274 -0.21001,0.616908 -0.26251,0.328142 -0.64316,0.420022 -1.15506,0.420022 -1.19444,0 -1.45696,-0.695662 -1.44383,-1.194439 z" />
    </g>
  </g>
  <g
     transform="translate(4.3138628,-8.0210056)"
     style="display:inline"
     id="layer4">
    <g
       transform="matrix(0.81166983,0,0,0.81166983,-15.364337,-43.393791)"
       id="g991">
      <g
         id="g1692"
         clip-path="url(#clipPath1697)"
         style="display:inline;fill:none;stroke:#ffffff;stroke-width:1;stroke-miterlimit:4;stroke-dasharray:none;stroke-opacity:1">
        <path
           id="path915"
           d="m 24.665226,103.85773 c 0,0 8.605277,-2.56435 14.618611,-2.35921 6.01333,0.20514 15.240682,4.51327 21.150332,4.71843 5.909649,0.20513 9.148129,-2.43893 13.813457,-2.23383"
           style="display:inline;fill:none;stroke:#ffffff;stroke-width:1;stroke-linecap:butt;stroke-linejoin:miter;stroke-miterlimit:4;stroke-dasharray:none;stroke-opacity:1" />
        <use
           height="100%"
           width="100%"
           style="fill:none;stroke:#ffffff;stroke-width:1;stroke-miterlimit:4;stroke-dasharray:none;stroke-opacity:1"
           id="use1442"
           transform="translate(0,4.6556499)"
           xlink:href="#path915"
           y="0"
           x="0" />
        <use
           height="100%"
           width="100%"
           style="fill:none;stroke:#ffffff;stroke-width:1;stroke-miterlimit:4;stroke-dasharray:none;stroke-opacity:1"
           id="use1446"
           transform="translate(0,9.3113)"
           xlink:href="#path915"
           y="0"
           x="0" />
        <use
           height="100%"
           width="100%"
           style="fill:none;stroke:#ffffff;stroke-width:1;stroke-miterlimit:4;stroke-dasharray:none;stroke-opacity:1"
           id="use1450"
           transform="translate(0,13.966951)"
           xlink:href="#path915"
           y="0"
           x="0" />
        <use
           height="100%"
           width="100%"
           style="fill:none;stroke:#ffffff;stroke-width:1;stroke-miterlimit:4;stroke-dasharray:none;stroke-opacity:1"
           id="use1454"
           transform="translate(0,18.6226)"
           xlink:href="#path915"
           y="0"
           x="0" />
      </g>
      <path
         style="display:inline;opacity:1;fill:none;fill-opacity:1;stroke:#ffffff;stroke-width:0.98870021;stroke-miterlimit:4;stroke-dasharray:none;stroke-dashoffset:0;stroke-opacity:1"
         d="m 51.700318,83.663843 -8.139411,11.17742 -0.09179,0.126524 -3.174919,-4.196911 -2.9776,3.807912 -2.680249,-4.01116 -7.720113,11.177412 -7.72148,11.17608 3.758655,0.0228 -0.141149,0.18038 17.266794,0.0927 17.268161,0.093 -5.322136,-7.03435 6.64993,0.0376 16.544658,0.093 -8.16956,-11.270297 -8.169559,-11.268947 -3.627107,4.84032 z"
         id="path865"
         clip-path="url(#clipPath1854)"
         transform="matrix(1,0,0,1.0229885,0,-1.9233055)" />
      <circle
         style="display:inline;opacity:1;fill:none;fill-opacity:1;stroke:#ffffff;stroke-width:2;stroke-miterlimit:4;stroke-dasharray:none;stroke-dashoffset:0;stroke-opacity:1"
         id="path853"
         cx="49.541237"
         cy="100.25676"
         r="28.802238" />
      <use
         x="0"
         y="0"
         xlink:href="#path915"
         id="use949"
         style="display:inline;fill:none;stroke:#ffffff;stroke-width:1;stroke-miterlimit:4;stroke-dasharray:none;stroke-opacity:1"
         width="100%"
         height="100%"
         transform="translate(-4.3262252e-4,0.02875089)"
         clip-path="url(#clipPath971)"
         mask="none" />
    </g>
  </g>
</svg>
